<svg width="53" height="60" viewBox="0 0 53 60" fill="none" xmlns="http://www.w3.org/2000/svg">
<path d="M40 30H14V36H40V30Z" fill="#f54248"/>
<path d="M15 60H39C39.2652 60 39.5196 59.8946 39.7071 59.7071C39.8946 59.5196 40 59.2652 40 59V38H14V59C14 59.2652 14.1054 59.5196 14.2929 59.7071C14.4804 59.8946 14.7348 60 15 60Z" fill="#f54248"/>
<path d="M40 21H14V28H40V21Z" fill="#f54248"/>
<path d="M52 26.135C52.5523 26.135 53 25.6873 53 25.135C53 24.5827 52.5523 24.135 52 24.135C51.4477 24.135 51 24.5827 51 25.135C51 25.6873 51.4477 26.135 52 26.135Z" fill="#f54248"/>
<path d="M8 15C8.55228 15 9 14.5523 9 14C9 13.4477 8.55228 13 8 13C7.44772 13 7 13.4477 7 14C7 14.5523 7.44772 15 8 15Z" fill="#f54248"/>
<path d="M48 13.635C48.1326 13.635 48.2598 13.5823 48.3536 13.4886C48.4473 13.3948 48.5 13.2676 48.5 13.135V12.135C48.5 12.0024 48.4473 11.8752 48.3536 11.7815C48.2598 11.6877 48.1326 11.635 48 11.635C47.8674 11.635 47.7402 11.6877 47.6464 11.7815C47.5527 11.8752 47.5 12.0024 47.5 12.135V13.135C47.5 13.2676 47.5527 13.3948 47.6464 13.4886C47.7402 13.5823 47.8674 13.635 48 13.635Z" fill="#f54248"/>
<path d="M50 15.635H51C51.1326 15.635 51.2598 15.5823 51.3536 15.4886C51.4473 15.3948 51.5 15.2676 51.5 15.135C51.5 15.0024 51.4473 14.8752 51.3536 14.7815C51.2598 14.6877 51.1326 14.635 51 14.635H50C49.8674 14.635 49.7402 14.6877 49.6464 14.7815C49.5527 14.8752 49.5 15.0024 49.5 15.135C49.5 15.2676 49.5527 15.3948 49.6464 15.4886C49.7402 15.5823 49.8674 15.635 50 15.635Z" fill="#f54248"/>
<path d="M48 18.635C48.1326 18.635 48.2598 18.5823 48.3536 18.4886C48.4473 18.3948 48.5 18.2676 48.5 18.135V17.135C48.5 17.0024 48.4473 16.8752 48.3536 16.7815C48.2598 16.6877 48.1326 16.635 48 16.635C47.8674 16.635 47.7402 16.6877 47.6464 16.7815C47.5527 16.8752 47.5 17.0024 47.5 17.135V18.135C47.5 18.2676 47.5527 18.3948 47.6464 18.4886C47.7402 18.5823 47.8674 18.635 48 18.635Z" fill="#f54248"/>
<path d="M45 15.635H46C46.1326 15.635 46.2598 15.5823 46.3536 15.4886C46.4473 15.3948 46.5 15.2676 46.5 15.135C46.5 15.0024 46.4473 14.8752 46.3536 14.7815C46.2598 14.6877 46.1326 14.635 46 14.635H45C44.8674 14.635 44.7402 14.6877 44.6464 14.7815C44.5527 14.8752 44.5 15.0024 44.5 15.135C44.5 15.2676 44.5527 15.3948 44.6464 15.4886C44.7402 15.5823 44.8674 15.635 45 15.635Z" fill="#f54248"/>
<path d="M4 25.5C4.13261 25.5 4.25979 25.4473 4.35355 25.3536C4.44732 25.2598 4.5 25.1326 4.5 25V24C4.5 23.8674 4.44732 23.7402 4.35355 23.6464C4.25979 23.5527 4.13261 23.5 4 23.5C3.86739 23.5 3.74021 23.5527 3.64645 23.6464C3.55268 23.7402 3.5 23.8674 3.5 24V25C3.5 25.1326 3.55268 25.2598 3.64645 25.3536C3.74021 25.4473 3.86739 25.5 4 25.5Z" fill="#f54248"/>
<path d="M6 26.5C5.86739 26.5 5.74021 26.5527 5.64645 26.6464C5.55268 26.7402 5.5 26.8674 5.5 27C5.5 27.1326 5.55268 27.2598 5.64645 27.3536C5.74021 27.4473 5.86739 27.5 6 27.5H7C7.13261 27.5 7.25979 27.4473 7.35355 27.3536C7.44732 27.2598 7.5 27.1326 7.5 27C7.5 26.8674 7.44732 26.7402 7.35355 26.6464C7.25979 26.5527 7.13261 26.5 7 26.5H6Z" fill="#f54248"/>
<path d="M4 30.5C4.13261 30.5 4.25979 30.4473 4.35355 30.3536C4.44732 30.2598 4.5 30.1326 4.5 30V29C4.5 28.8674 4.44732 28.7402 4.35355 28.6464C4.25979 28.5527 4.13261 28.5 4 28.5C3.86739 28.5 3.74021 28.5527 3.64645 28.6464C3.55268 28.7402 3.5 28.8674 3.5 29V30C3.5 30.1326 3.55268 30.2598 3.64645 30.3536C3.74021 30.4473 3.86739 30.5 4 30.5Z" fill="#f54248"/>
<path d="M1 27.5H2C2.13261 27.5 2.25979 27.4473 2.35355 27.3536C2.44732 27.2598 2.5 27.1326 2.5 27C2.5 26.8674 2.44732 26.7402 2.35355 26.6464C2.25979 26.5527 2.13261 26.5 2 26.5H1C0.867392 26.5 0.740215 26.5527 0.646447 26.6464C0.552679 26.7402 0.5 26.8674 0.5 27C0.5 27.1326 0.552679 27.2598 0.646447 27.3536C0.740215 27.4473 0.867392 27.5 1 27.5Z" fill="#f54248"/>
<path d="M8 2.5C8.13261 2.5 8.25979 2.44732 8.35355 2.35355C8.44732 2.25979 8.5 2.13261 8.5 2V1C8.5 0.867392 8.44732 0.740215 8.35355 0.646447C8.25979 0.552679 8.13261 0.5 8 0.5C7.86739 0.5 7.74021 0.552679 7.64645 0.646447C7.55268 0.740215 7.5 0.867392 7.5 1V2C7.5 2.13261 7.55268 2.25979 7.64645 2.35355C7.74021 2.44732 7.86739 2.5 8 2.5Z" fill="#f54248"/>
<path d="M10 4.5H11C11.1326 4.5 11.2598 4.44732 11.3536 4.35355C11.4473 4.25979 11.5 4.13261 11.5 4C11.5 3.86739 11.4473 3.74021 11.3536 3.64645C11.2598 3.55268 11.1326 3.5 11 3.5H10C9.86739 3.5 9.74021 3.55268 9.64645 3.64645C9.55268 3.74021 9.5 3.86739 9.5 4C9.5 4.13261 9.55268 4.25979 9.64645 4.35355C9.74021 4.44732 9.86739 4.5 10 4.5Z" fill="#f54248"/>
<path d="M8 7.5C8.13261 7.5 8.25979 7.44732 8.35355 7.35355C8.44732 7.25979 8.5 7.13261 8.5 7V6C8.5 5.86739 8.44732 5.74021 8.35355 5.64645C8.25979 5.55268 8.13261 5.5 8 5.5C7.86739 5.5 7.74021 5.55268 7.64645 5.64645C7.55268 5.74021 7.5 5.86739 7.5 6V7C7.5 7.13261 7.55268 7.25979 7.64645 7.35355C7.74021 7.44732 7.86739 7.5 8 7.5Z" fill="#f54248"/>
<path d="M5 4.5H6C6.13261 4.5 6.25979 4.44732 6.35355 4.35355C6.44732 4.25979 6.5 4.13261 6.5 4C6.5 3.86739 6.44732 3.74021 6.35355 3.64645C6.25979 3.55268 6.13261 3.5 6 3.5H5C4.86739 3.5 4.74021 3.55268 4.64645 3.64645C4.55268 3.74021 4.5 3.86739 4.5 4C4.5 4.13261 4.55268 4.25979 4.64645 4.35355C4.74021 4.44732 4.86739 4.5 5 4.5Z" fill="#f54248"/>
<path d="M46.5 31.5C46.6326 31.5 46.7598 31.4473 46.8536 31.3536C46.9473 31.2598 47 31.1326 47 31V30C47 29.8674 46.9473 29.7402 46.8536 29.6464C46.7598 29.5527 46.6326 29.5 46.5 29.5C46.3674 29.5 46.2402 29.5527 46.1464 29.6464C46.0527 29.7402 46 29.8674 46 30V31C46 31.1326 46.0527 31.2598 46.1464 31.3536C46.2402 31.4473 46.3674 31.5 46.5 31.5Z" fill="#f54248"/>
<path d="M48.5 33.5H49.5C49.6326 33.5 49.7598 33.4473 49.8536 33.3536C49.9473 33.2598 50 33.1326 50 33C50 32.8674 49.9473 32.7402 49.8536 32.6464C49.7598 32.5527 49.6326 32.5 49.5 32.5H48.5C48.3674 32.5 48.2402 32.5527 48.1464 32.6464C48.0527 32.7402 48 32.8674 48 33C48 33.1326 48.0527 33.2598 48.1464 33.3536C48.2402 33.4473 48.3674 33.5 48.5 33.5Z" fill="#f54248"/>
<path d="M46.5 36.5C46.6326 36.5 46.7598 36.4473 46.8536 36.3536C46.9473 36.2598 47 36.1326 47 36V35C47 34.8674 46.9473 34.7402 46.8536 34.6464C46.7598 34.5527 46.6326 34.5 46.5 34.5C46.3674 34.5 46.2402 34.5527 46.1464 34.6464C46.0527 34.7402 46 34.8674 46 35V36C46 36.1326 46.0527 36.2598 46.1464 36.3536C46.2402 36.4473 46.3674 36.5 46.5 36.5Z" fill="#f54248"/>
<path d="M45 33C45 32.8674 44.9473 32.7402 44.8536 32.6464C44.7598 32.5527 44.6326 32.5 44.5 32.5H43.5C43.3674 32.5 43.2402 32.5527 43.1464 32.6464C43.0527 32.7402 43 32.8674 43 33C43 33.1326 43.0527 33.2598 43.1464 33.3536C43.2402 33.4473 43.3674 33.5 43.5 33.5H44.5C44.6326 33.5 44.7598 33.4473 44.8536 33.3536C44.9473 33.2598 45 33.1326 45 33Z" fill="#f54248"/>
<path d="M13.5739 11.293L13.9169 11.525L13.6849 11.869C13.611 11.9775 13.5593 12.0995 13.5329 12.2281C13.5065 12.3566 13.5058 12.4892 13.5309 12.618L14.7559 19H16.7919L15.5729 12.648L16.1339 11.82C16.2825 11.6006 16.338 11.3312 16.2881 11.0709C16.2382 10.8107 16.0871 10.5809 15.8679 10.432L15.0399 9.86999L14.4399 6.75499L15.2329 5.58499L15.5919 5.82799C15.73 5.9193 15.8891 5.97416 16.0541 5.98745C16.2192 6.00073 16.3849 5.97202 16.5359 5.90399L16.6269 7.22499C16.6463 7.48921 16.7688 7.73521 16.9679 7.90999L17.2809 8.18099L17.0089 8.49399C16.9224 8.5929 16.8563 8.708 16.8146 8.83263C16.7729 8.95725 16.7563 9.08891 16.7659 9.21999L17.4449 19H19.5249L19.3059 16.417C19.8719 17.2533 20.5901 17.9758 21.4229 18.547L21.4549 19H23.4549L22.7489 8.79999C22.7305 8.53547 22.6079 8.28908 22.4079 8.11499L22.0999 7.84799L22.3719 7.53499C22.5454 7.33447 22.6327 7.07355 22.6149 6.80899L22.3379 2.81899C22.3203 2.55492 22.1988 2.3086 21.9999 2.13399L19.8629 0.276986C19.6626 0.103389 19.4016 0.0164105 19.1372 0.0351614C18.8728 0.0539123 18.6267 0.176859 18.4529 0.376986L16.5999 2.50799C16.5137 2.60711 16.4479 2.72224 16.4062 2.84681C16.3645 2.97138 16.3477 3.10294 16.3569 3.23399L16.4069 3.95999L15.5339 3.36899C15.4252 3.29525 15.3031 3.24363 15.1745 3.21709C15.0459 3.19055 14.9133 3.18961 14.7843 3.21431C14.6553 3.23901 14.5325 3.28887 14.4228 3.36105C14.313 3.43323 14.2186 3.52632 14.1449 3.63499L12.5539 5.97599C12.4802 6.08475 12.4287 6.20698 12.4023 6.33566C12.3758 6.46435 12.375 6.59698 12.3999 6.72599L13.1539 10.654C13.2037 10.9142 13.3548 11.144 13.5739 11.293Z" fill="#f54248"/>
<path d="M24 9.00003V19H30V9.00003C29.9999 8.73484 29.8946 8.48052 29.707 8.29303L29.414 8.00003L29.707 7.70703C29.8946 7.51954 29.9999 7.26523 30 7.00003V3.00003C29.9999 2.73484 29.8946 2.48052 29.707 2.29303L27.707 0.293031C27.5195 0.105559 27.2652 0.000244141 27 0.000244141C26.7348 0.000244141 26.4805 0.105559 26.293 0.293031L24.293 2.29303C24.1054 2.48052 24.0001 2.73484 24 3.00003V7.00003C24.0001 7.26523 24.1054 7.51954 24.293 7.70703L24.586 8.00003L24.293 8.29303C24.1054 8.48052 24.0001 8.73484 24 9.00003Z" fill="#f54248"/>
<path d="M43.3 3.48303L41.924 1.01203C41.8602 0.897252 41.7744 0.796168 41.6715 0.71455C41.5686 0.632933 41.4506 0.57238 41.3244 0.536351C41.1981 0.500321 41.0659 0.48952 40.9355 0.504565C40.805 0.519609 40.6788 0.560203 40.564 0.624031L38.092 2.00003C37.8604 2.12914 37.6895 2.34496 37.617 2.60003L36.517 6.44703C36.4441 6.70188 36.4754 6.97524 36.604 7.20703L36.804 7.56903L36.442 7.76903C36.3271 7.83286 36.226 7.9187 36.1443 8.02166C36.0626 8.12461 36.002 8.24265 35.966 8.36903L33 18.8V9.41403L33.707 8.70703C33.8945 8.5195 33.9998 8.26519 33.9998 8.00003C33.9998 7.73487 33.8945 7.48056 33.707 7.29303L33 6.58603V3.41403L34 2.41403L35 3.41403V4.00003C35 4.26525 35.1054 4.5196 35.2929 4.70714C35.4804 4.89467 35.7348 5.00003 36 5.00003C36.2652 5.00003 36.5196 4.89467 36.7071 4.70714C36.8946 4.5196 37 4.26525 37 4.00003V3.00003C36.9999 2.73484 36.8946 2.48052 36.707 2.29303L34.707 0.293031C34.5195 0.105559 34.2652 0.000244141 34 0.000244141C33.7348 0.000244141 33.4805 0.105559 33.293 0.293031L31.293 2.29303C31.1054 2.48052 31.0001 2.73484 31 3.00003V7.00003C31.0001 7.26523 31.1054 7.51954 31.293 7.70703L31.586 8.00003L31.293 8.29303C31.1054 8.48052 31.0001 8.73484 31 9.00003V19H34.251C35.0451 18.9993 35.8211 18.7622 36.48 18.319C37.1389 17.8757 37.651 17.2463 37.951 16.511C38.454 15.286 37.1 19 37.1 19H39.18L41.742 10.014C41.7781 9.88763 41.7889 9.75535 41.7738 9.62477C41.7587 9.49419 41.718 9.36787 41.654 9.25303L41.454 8.89203L41.816 8.69203C41.9309 8.6282 42.032 8.54236 42.1137 8.43941C42.1954 8.33645 42.256 8.21841 42.292 8.09203L43.392 4.24603C43.4277 4.11907 43.438 3.98629 43.4222 3.85534C43.4064 3.72439 43.3649 3.59786 43.3 3.48303Z" fill="#f54248"/>
</svg>
